<svg width="1433" height="795" viewBox="0 0 1433 795" fill="none" xmlns="http://www.w3.org/2000/svg">
<rect x="1" y="1" width="1440" height="793" fill="#FCDB39"/>
<path d="M52.5252 36.2177H26.7626L52.5252 71.3719V83.1745C52.5252 96.1828 41.029 106.78 26.7626 106.78C12.5655 106.78 1 96.1828 1 83.1745V24.6053C1 11.597 12.5655 1 26.7626 1C33.8958 1 40.3365 3.66512 44.9765 7.91662C49.6165 12.2316 52.5252 18.1329 52.5252 24.6053V36.2177Z" stroke="white" stroke-width="0.352791"/>
<path d="M116.862 24.7323V83.3015C116.862 96.3098 105.297 106.907 91.0999 106.907C76.8335 106.907 65.3373 96.3098 65.3373 83.3015V71.5623H90.9614L65.3373 36.2177V24.7323C65.3373 11.724 76.8335 1.12695 91.0999 1.12695C98.1638 1.12695 104.604 3.79207 109.314 8.04357C113.954 12.3585 116.862 18.1964 116.862 24.7323Z" stroke="white" stroke-width="0.352791"/>
<path d="M310.013 36.2177H284.25L310.013 71.3719V83.1745C310.013 96.1828 298.447 106.78 284.25 106.78C270.053 106.78 258.488 96.1828 258.488 83.1745V24.6053C258.488 11.597 270.053 1 284.25 1C291.383 1 297.824 3.66512 302.464 7.91662C307.104 12.2316 310.013 18.1329 310.013 24.6053V36.2177Z" stroke="white" stroke-width="0.352791"/>
<path d="M374.35 24.7323V83.3015C374.35 96.3098 362.785 106.907 348.587 106.907C334.321 106.907 322.825 96.3098 322.825 83.3015V71.5623H348.449L322.825 36.2177V24.7323C322.825 11.724 334.321 1.12695 348.587 1.12695C355.651 1.12695 362.092 3.79207 366.801 8.04357C371.441 12.3585 374.35 18.1964 374.35 24.7323Z" stroke="white" stroke-width="0.352791"/>
<path d="M438.757 36.2177H412.994L438.757 71.3719V83.1745C438.757 96.1828 427.191 106.78 412.994 106.78C398.797 106.78 387.232 96.1828 387.232 83.1745V24.6053C387.232 11.597 398.797 1 412.994 1C420.127 1 426.568 3.66512 431.208 7.91662C435.848 12.2316 438.757 18.1329 438.757 24.6053V36.2177Z" stroke="white" stroke-width="0.352791"/>
<path d="M503.025 24.7323V83.3015C503.025 96.3098 491.528 106.907 477.331 106.907C463.065 106.907 451.569 96.3098 451.569 83.3015V71.5623H477.193L451.569 36.2177V24.7323C451.569 11.724 463.065 1.12695 477.331 1.12695C484.395 1.12695 490.836 3.79207 495.545 8.04357C500.185 12.3585 503.025 18.1964 503.025 24.7323Z" stroke="white" stroke-width="0.352791"/>
<path d="M696.244 36.2177H670.482L696.244 71.3719V83.1745C696.244 96.1828 684.679 106.78 670.482 106.78C656.285 106.78 644.719 96.1828 644.719 83.1745V24.6053C644.719 11.597 656.285 1 670.482 1C677.615 1 684.056 3.66512 688.696 7.91662C693.336 12.2316 696.244 18.1329 696.244 24.6053V36.2177Z" stroke="white" stroke-width="0.352791"/>
<path d="M760.512 24.7323V83.3015C760.512 96.3098 749.016 106.907 734.819 106.907C720.552 106.907 709.056 96.3098 709.056 83.3015V71.5623H734.68L709.056 36.2177V24.7323C709.056 11.724 720.552 1.12695 734.819 1.12695C741.883 1.12695 748.323 3.79207 752.963 8.04357C757.673 12.3585 760.512 18.1964 760.512 24.7323Z" stroke="white" stroke-width="0.352791"/>
<path d="M824.988 36.2177H799.225L824.988 71.3719V83.1745C824.988 96.1828 813.423 106.78 799.225 106.78C785.028 106.78 773.463 96.1828 773.463 83.1745V24.6053C773.463 11.597 785.028 1 799.225 1C806.359 1 812.799 3.66512 817.439 7.91662C822.079 12.2316 824.988 18.1329 824.988 24.6053V36.2177Z" stroke="white" stroke-width="0.352791"/>
<path d="M889.256 24.7323V83.3015C889.256 96.3098 877.76 106.907 863.493 106.907C849.296 106.907 837.8 96.3098 837.8 83.3015V71.5623H863.355L837.8 36.2177V24.7323C837.8 11.724 849.296 1.12695 863.493 1.12695C870.627 1.12695 877.067 3.79207 881.707 8.04357C886.417 12.3585 889.256 18.1964 889.256 24.7323Z" stroke="white" stroke-width="0.352791"/>
<path d="M52.5252 150.754H26.7626L52.5252 185.908V197.648C52.5252 210.719 41.029 221.253 26.7626 221.253C12.5655 221.253 1 210.719 1 197.648V139.142C1 126.134 12.5655 115.537 26.7626 115.537C33.8958 115.537 40.3365 118.202 44.9765 122.453C49.6165 126.705 52.5252 132.606 52.5252 139.142V150.754Z" stroke="white" stroke-width="0.352791"/>
<path d="M116.862 139.269V197.775C116.862 210.847 105.297 221.38 91.0999 221.38C76.8335 221.38 65.3373 210.847 65.3373 197.775V186.099H90.9614L65.3373 150.755V139.269C65.3373 126.197 76.8335 115.664 91.0999 115.664C98.1638 115.664 104.604 118.329 109.314 122.58C113.954 126.832 116.862 132.733 116.862 139.269Z" stroke="white" stroke-width="0.352791"/>
<path d="M181.269 150.754H155.506L181.269 185.908V197.648C181.269 210.719 169.773 221.253 155.506 221.253C141.309 221.253 129.744 210.719 129.744 197.648V139.142C129.744 126.134 141.309 115.537 155.506 115.537C162.64 115.537 169.08 118.202 173.72 122.453C178.36 126.705 181.269 132.606 181.269 139.142V150.754Z" stroke="white" stroke-width="0.352791"/>
<path d="M245.606 139.269V197.775C245.606 210.847 234.041 221.38 219.844 221.38C205.577 221.38 194.081 210.847 194.081 197.775V186.099H219.705L194.081 150.755V139.269C194.081 126.197 205.577 115.664 219.844 115.664C226.908 115.664 233.348 118.329 238.058 122.58C242.698 126.832 245.606 132.733 245.606 139.269Z" stroke="white" stroke-width="0.352791"/>
<path d="M438.757 150.754H412.994L438.757 185.908V197.648C438.757 210.719 427.191 221.253 412.994 221.253C398.797 221.253 387.232 210.719 387.232 197.648V139.142C387.232 126.134 398.797 115.537 412.994 115.537C420.127 115.537 426.568 118.202 431.208 122.453C435.848 126.705 438.757 132.606 438.757 139.142V150.754Z" stroke="white" stroke-width="0.352791"/>
<path d="M503.025 139.269V197.775C503.025 210.847 491.528 221.38 477.331 221.38C463.065 221.38 451.569 210.847 451.569 197.775V186.099H477.193L451.569 150.755V139.269C451.569 126.197 463.065 115.664 477.331 115.664C484.395 115.664 490.836 118.329 495.545 122.58C500.185 126.832 503.025 132.733 503.025 139.269Z" stroke="white" stroke-width="0.352791"/>
<path d="M567.501 150.754H541.738L567.501 185.908V197.648C567.501 210.719 555.935 221.253 541.738 221.253C527.541 221.253 515.975 210.719 515.975 197.648V139.142C515.975 126.134 527.541 115.537 541.738 115.537C548.871 115.537 555.312 118.202 559.952 122.453C564.592 126.705 567.501 132.606 567.501 139.142V150.754Z" stroke="white" stroke-width="0.352791"/>
<path d="M631.769 139.269V197.775C631.769 210.847 620.272 221.38 606.075 221.38C591.809 221.38 580.313 210.847 580.313 197.775V186.099H605.937L580.313 150.755V139.269C580.313 126.197 591.809 115.664 606.075 115.664C613.139 115.664 619.58 118.329 624.289 122.58C628.929 126.832 631.769 132.733 631.769 139.269Z" stroke="white" stroke-width="0.352791"/>
<path d="M824.988 150.754H799.225L824.988 185.908V197.648C824.988 210.719 813.423 221.253 799.225 221.253C785.028 221.253 773.463 210.719 773.463 197.648V139.142C773.463 126.134 785.028 115.537 799.225 115.537C806.359 115.537 812.799 118.202 817.439 122.453C822.079 126.705 824.988 132.606 824.988 139.142V150.754Z" stroke="white" stroke-width="0.352791"/>
<path d="M889.256 139.269V197.775C889.256 210.847 877.76 221.38 863.493 221.38C849.296 221.38 837.8 210.847 837.8 197.775V186.099H863.355L837.8 150.755V139.269C837.8 126.197 849.296 115.664 863.493 115.664C870.627 115.664 877.067 118.329 881.707 122.58C886.417 126.832 889.256 132.733 889.256 139.269Z" stroke="white" stroke-width="0.352791"/>
<path d="M953.732 150.754H927.969L953.732 185.908V197.648C953.732 210.719 942.166 221.253 927.969 221.253C913.703 221.253 902.207 210.719 902.207 197.648V139.142C902.207 126.134 913.703 115.537 927.969 115.537C935.102 115.537 941.543 118.202 946.183 122.453C950.823 126.705 953.732 132.606 953.732 139.142V150.754Z" stroke="white" stroke-width="0.352791"/>
<path d="M1018 139.269V197.775C1018 210.847 1006.5 221.38 992.237 221.38C978.04 221.38 966.544 210.847 966.544 197.775V186.099H992.099L966.544 150.755V139.269C966.544 126.197 978.04 115.664 992.237 115.664C999.371 115.664 1005.81 118.329 1010.45 122.58C1015.16 126.832 1018 132.733 1018 139.269Z" stroke="white" stroke-width="0.352791"/>
<path d="M181.269 265.228H155.506L181.269 300.382V312.185C181.269 325.256 169.773 335.79 155.506 335.79C141.309 335.79 129.744 325.256 129.744 312.185V253.679C129.744 240.607 141.309 230.073 155.506 230.073C162.64 230.073 169.08 232.675 173.72 236.99C178.36 241.242 181.269 247.143 181.269 253.679V265.228Z" stroke="white" stroke-width="0.352791"/>
<path d="M245.606 253.806V312.311C245.606 325.32 234.041 335.917 219.844 335.917C205.577 335.917 194.081 325.32 194.081 312.311V300.572H219.705L194.081 265.228V253.806C194.081 240.734 205.577 230.2 219.844 230.2C226.908 230.2 233.348 232.802 238.058 237.117C242.698 241.368 245.606 247.27 245.606 253.806Z" stroke="white" stroke-width="0.352791"/>
<path d="M310.013 265.228H284.25L310.013 300.382V312.185C310.013 325.256 298.447 335.79 284.25 335.79C270.053 335.79 258.488 325.256 258.488 312.185V253.679C258.488 240.607 270.053 230.073 284.25 230.073C291.383 230.073 297.824 232.675 302.464 236.99C307.104 241.242 310.013 247.143 310.013 253.679V265.228Z" stroke="white" stroke-width="0.352791"/>
<path d="M374.35 253.806V312.311C374.35 325.32 362.785 335.917 348.587 335.917C334.321 335.917 322.825 325.32 322.825 312.311V300.572H348.449L322.825 265.228V253.806C322.825 240.734 334.321 230.2 348.587 230.2C355.651 230.2 362.092 232.802 366.801 237.117C371.441 241.368 374.35 247.27 374.35 253.806Z" stroke="white" stroke-width="0.352791"/>
<path d="M567.501 265.228H541.738L567.501 300.382V312.185C567.501 325.256 555.935 335.79 541.738 335.79C527.541 335.79 515.975 325.256 515.975 312.185V253.679C515.975 240.607 527.541 230.073 541.738 230.073C548.871 230.073 555.312 232.675 559.952 236.99C564.592 241.242 567.501 247.143 567.501 253.679V265.228Z" stroke="white" stroke-width="0.352791"/>
<path d="M631.769 253.806V312.311C631.769 325.32 620.272 335.917 606.075 335.917C591.809 335.917 580.313 325.32 580.313 312.311V300.572H605.937L580.313 265.228V253.806C580.313 240.734 591.809 230.2 606.075 230.2C613.139 230.2 619.58 232.802 624.289 237.117C628.929 241.368 631.769 247.27 631.769 253.806Z" stroke="white" stroke-width="0.352791"/>
<path d="M696.244 265.228H670.482L696.244 300.382V312.185C696.244 325.256 684.679 335.79 670.482 335.79C656.285 335.79 644.719 325.256 644.719 312.185V253.679C644.719 240.607 656.285 230.073 670.482 230.073C677.615 230.073 684.056 232.675 688.696 236.99C693.336 241.242 696.244 247.143 696.244 253.679V265.228Z" stroke="white" stroke-width="0.352791"/>
<path d="M760.512 253.806V312.311C760.512 325.32 749.016 335.917 734.819 335.917C720.552 335.917 709.056 325.32 709.056 312.311V300.572H734.68L709.056 265.228V253.806C709.056 240.734 720.552 230.2 734.819 230.2C741.883 230.2 748.323 232.802 752.963 237.117C757.673 241.368 760.512 247.27 760.512 253.806Z" stroke="white" stroke-width="0.352791"/>
<path d="M953.732 265.228H927.969L953.732 300.382V312.185C953.732 325.256 942.166 335.79 927.969 335.79C913.703 335.79 902.207 325.256 902.207 312.185V253.679C902.207 240.607 913.703 230.073 927.969 230.073C935.102 230.073 941.543 232.675 946.183 236.99C950.823 241.242 953.732 247.143 953.732 253.679V265.228Z" stroke="white" stroke-width="0.352791"/>
<path d="M1018 253.806V312.311C1018 325.32 1006.5 335.917 992.237 335.917C978.04 335.917 966.544 325.32 966.544 312.311V300.572H992.099L966.544 265.228V253.806C966.544 240.734 978.04 230.2 992.237 230.2C999.371 230.2 1005.81 232.802 1010.45 237.117C1015.16 241.368 1018 247.27 1018 253.806Z" stroke="white" stroke-width="0.352791"/>
<path d="M52.5252 379.764H26.7626L52.5252 414.918V426.721C52.5252 439.729 41.029 450.327 26.7626 450.327C12.5655 450.327 1 439.729 1 426.721V368.152C1 355.144 12.5655 344.547 26.7626 344.547C33.8958 344.547 40.3365 347.212 44.9765 351.463C49.6165 355.778 52.5252 361.68 52.5252 368.152V379.764Z" stroke="white" stroke-width="0.352791"/>
<path d="M116.862 368.279V426.848C116.862 439.856 105.297 450.454 91.0999 450.454C76.8335 450.454 65.3373 439.856 65.3373 426.848V415.109H90.9614L65.3373 379.764V368.279C65.3373 355.271 76.8335 344.674 91.0999 344.674C98.1638 344.674 104.604 347.339 109.314 351.59C113.954 355.905 116.862 361.807 116.862 368.279Z" stroke="white" stroke-width="0.352791"/>
<path d="M310.013 379.764H284.25L310.013 414.918V426.721C310.013 439.729 298.447 450.327 284.25 450.327C270.053 450.327 258.488 439.729 258.488 426.721V368.152C258.488 355.144 270.053 344.547 284.25 344.547C291.383 344.547 297.824 347.212 302.464 351.463C307.104 355.778 310.013 361.68 310.013 368.152V379.764Z" stroke="white" stroke-width="0.352791"/>
<path d="M374.35 368.279V426.848C374.35 439.856 362.785 450.454 348.587 450.454C334.321 450.454 322.825 439.856 322.825 426.848V415.109H348.449L322.825 379.764V368.279C322.825 355.271 334.321 344.674 348.587 344.674C355.651 344.674 362.092 347.339 366.801 351.59C371.441 355.905 374.35 361.807 374.35 368.279Z" stroke="white" stroke-width="0.352791"/>
<path d="M438.757 379.764H412.994L438.757 414.918V426.721C438.757 439.729 427.191 450.327 412.994 450.327C398.797 450.327 387.232 439.729 387.232 426.721V368.152C387.232 355.144 398.797 344.547 412.994 344.547C420.127 344.547 426.568 347.212 431.208 351.463C435.848 355.778 438.757 361.68 438.757 368.152V379.764Z" stroke="white" stroke-width="0.352791"/>
<path d="M503.025 368.279V426.848C503.025 439.856 491.528 450.454 477.331 450.454C463.065 450.454 451.569 439.856 451.569 426.848V415.109H477.193L451.569 379.764V368.279C451.569 355.271 463.065 344.674 477.331 344.674C484.395 344.674 490.836 347.339 495.545 351.59C500.185 355.905 503.025 361.807 503.025 368.279Z" stroke="white" stroke-width="0.352791"/>
<path d="M696.244 379.764H670.482L696.244 414.918V426.721C696.244 439.729 684.679 450.327 670.482 450.327C656.285 450.327 644.719 439.729 644.719 426.721V368.152C644.719 355.144 656.285 344.547 670.482 344.547C677.615 344.547 684.056 347.212 688.696 351.463C693.336 355.778 696.244 361.68 696.244 368.152V379.764Z" stroke="white" stroke-width="0.352791"/>
<path d="M760.512 368.279V426.848C760.512 439.856 749.016 450.454 734.819 450.454C720.552 450.454 709.056 439.856 709.056 426.848V415.109H734.68L709.056 379.764V368.279C709.056 355.271 720.552 344.674 734.819 344.674C741.883 344.674 748.323 347.339 752.963 351.59C757.673 355.905 760.512 361.807 760.512 368.279Z" stroke="white" stroke-width="0.352791"/>
<path d="M824.988 379.764H799.225L824.988 414.918V426.721C824.988 439.729 813.423 450.327 799.225 450.327C785.028 450.327 773.463 439.729 773.463 426.721V368.152C773.463 355.144 785.028 344.547 799.225 344.547C806.359 344.547 812.799 347.212 817.439 351.463C822.079 355.778 824.988 361.68 824.988 368.152V379.764Z" stroke="white" stroke-width="0.352791"/>
<path d="M889.256 368.279V426.848C889.256 439.856 877.76 450.454 863.493 450.454C849.296 450.454 837.8 439.856 837.8 426.848V415.109H863.355L837.8 379.764V368.279C837.8 355.271 849.296 344.674 863.493 344.674C870.627 344.674 877.067 347.339 881.707 351.59C886.417 355.905 889.256 361.807 889.256 368.279Z" stroke="white" stroke-width="0.352791"/>
<path d="M52.5252 494.301H26.7626L52.5252 529.455V541.194C52.5252 554.266 41.029 564.8 26.7626 564.8C12.5655 564.8 1 554.266 1 541.194V482.689C1 469.68 12.5655 459.083 26.7626 459.083C33.8958 459.083 40.3365 461.748 44.9765 466C49.6165 470.251 52.5252 476.153 52.5252 482.689V494.301Z" stroke="white" stroke-width="0.352791"/>
<path d="M116.862 482.816V541.321C116.862 554.393 105.297 564.927 91.0999 564.927C76.8335 564.927 65.3373 554.393 65.3373 541.321V529.646H90.9614L65.3373 494.301V482.816C65.3373 469.744 76.8335 459.21 91.0999 459.21C98.1638 459.21 104.604 461.875 109.314 466.127C113.954 470.378 116.862 476.28 116.862 482.816Z" stroke="white" stroke-width="0.352791"/>
<path d="M181.269 494.301H155.506L181.269 529.455V541.194C181.269 554.266 169.773 564.8 155.506 564.8C141.309 564.8 129.744 554.266 129.744 541.194V482.689C129.744 469.68 141.309 459.083 155.506 459.083C162.64 459.083 169.08 461.748 173.72 466C178.36 470.251 181.269 476.153 181.269 482.689V494.301Z" stroke="white" stroke-width="0.352791"/>
<path d="M245.606 482.816V541.321C245.606 554.393 234.041 564.927 219.844 564.927C205.577 564.927 194.081 554.393 194.081 541.321V529.646H219.705L194.081 494.301V482.816C194.081 469.744 205.577 459.21 219.844 459.21C226.908 459.21 233.348 461.875 238.058 466.127C242.698 470.378 245.606 476.28 245.606 482.816Z" stroke="white" stroke-width="0.352791"/>
<path d="M438.757 494.301H412.994L438.757 529.455V541.194C438.757 554.266 427.191 564.8 412.994 564.8C398.797 564.8 387.232 554.266 387.232 541.194V482.689C387.232 469.68 398.797 459.083 412.994 459.083C420.127 459.083 426.568 461.748 431.208 466C435.848 470.251 438.757 476.153 438.757 482.689V494.301Z" stroke="white" stroke-width="0.352791"/>
<path d="M503.025 482.816V541.321C503.025 554.393 491.528 564.927 477.331 564.927C463.065 564.927 451.569 554.393 451.569 541.321V529.646H477.193L451.569 494.301V482.816C451.569 469.744 463.065 459.21 477.331 459.21C484.395 459.21 490.836 461.875 495.545 466.127C500.185 470.378 503.025 476.28 503.025 482.816Z" stroke="white" stroke-width="0.352791"/>
<path d="M567.501 494.301H541.738L567.501 529.455V541.194C567.501 554.266 555.935 564.8 541.738 564.8C527.541 564.8 515.975 554.266 515.975 541.194V482.689C515.975 469.68 527.541 459.083 541.738 459.083C548.871 459.083 555.312 461.748 559.952 466C564.592 470.251 567.501 476.153 567.501 482.689V494.301Z" stroke="white" stroke-width="0.352791"/>
<path d="M631.769 482.816V541.321C631.769 554.393 620.272 564.927 606.075 564.927C591.809 564.927 580.313 554.393 580.313 541.321V529.646H605.937L580.313 494.301V482.816C580.313 469.744 591.809 459.21 606.075 459.21C613.139 459.21 619.58 461.875 624.289 466.127C628.929 470.378 631.769 476.28 631.769 482.816Z" stroke="white" stroke-width="0.352791"/>
<path d="M824.988 494.301H799.225L824.988 529.455V541.194C824.988 554.266 813.423 564.8 799.225 564.8C785.028 564.8 773.463 554.266 773.463 541.194V482.689C773.463 469.68 785.028 459.083 799.225 459.083C806.359 459.083 812.799 461.748 817.439 466C822.079 470.251 824.988 476.153 824.988 482.689V494.301Z" stroke="white" stroke-width="0.352791"/>
<path d="M889.256 482.816V541.321C889.256 554.393 877.76 564.927 863.493 564.927C849.296 564.927 837.8 554.393 837.8 541.321V529.646H863.355L837.8 494.301V482.816C837.8 469.744 849.296 459.21 863.493 459.21C870.627 459.21 877.067 461.875 881.707 466.127C886.417 470.378 889.256 476.28 889.256 482.816Z" stroke="white" stroke-width="0.352791"/>
<path d="M953.732 494.301H927.969L953.732 529.455V541.194C953.732 554.266 942.166 564.8 927.969 564.8C913.703 564.8 902.207 554.266 902.207 541.194V482.689C902.207 469.68 913.703 459.083 927.969 459.083C935.102 459.083 941.543 461.748 946.183 466C950.823 470.251 953.732 476.153 953.732 482.689V494.301Z" stroke="white" stroke-width="0.352791"/>
<path d="M1018 482.816V541.321C1018 554.393 1006.5 564.927 992.237 564.927C978.04 564.927 966.544 554.393 966.544 541.321V529.646H992.099L966.544 494.301V482.816C966.544 469.744 978.04 459.21 992.237 459.21C999.371 459.21 1005.81 461.875 1010.45 466.127C1015.16 470.378 1018 476.28 1018 482.816Z" stroke="white" stroke-width="0.352791"/>
<path d="M181.269 608.774H155.506L181.269 643.928V655.731C181.269 668.803 169.773 679.336 155.506 679.336C141.309 679.336 129.744 668.803 129.744 655.731V597.225C129.744 584.154 141.309 573.62 155.506 573.62C162.64 573.62 169.08 576.222 173.72 580.537C178.36 584.788 181.269 590.689 181.269 597.225V608.774Z" stroke="white" stroke-width="0.352791"/>
<path d="M245.606 597.352V655.858C245.606 668.866 234.041 679.463 219.844 679.463C205.577 679.463 194.081 668.866 194.081 655.858V644.119H219.705L194.081 608.774V597.352C194.081 584.281 205.577 573.747 219.844 573.747C226.908 573.747 233.348 576.349 238.058 580.664C242.698 584.915 245.606 590.817 245.606 597.352Z" stroke="white" stroke-width="0.352791"/>
<path d="M310.013 608.774H284.25L310.013 643.928V655.731C310.013 668.803 298.447 679.336 284.25 679.336C270.053 679.336 258.488 668.803 258.488 655.731V597.225C258.488 584.154 270.053 573.62 284.25 573.62C291.383 573.62 297.824 576.222 302.464 580.537C307.104 584.788 310.013 590.689 310.013 597.225V608.774Z" stroke="white" stroke-width="0.352791"/>
<path d="M374.35 597.352V655.858C374.35 668.866 362.785 679.463 348.587 679.463C334.321 679.463 322.825 668.866 322.825 655.858V644.119H348.449L322.825 608.774V597.352C322.825 584.281 334.321 573.747 348.587 573.747C355.651 573.747 362.092 576.349 366.801 580.664C371.441 584.915 374.35 590.817 374.35 597.352Z" stroke="white" stroke-width="0.352791"/>
<path d="M567.501 608.774H541.738L567.501 643.928V655.731C567.501 668.803 555.935 679.336 541.738 679.336C527.541 679.336 515.975 668.803 515.975 655.731V597.225C515.975 584.154 527.541 573.62 541.738 573.62C548.871 573.62 555.312 576.222 559.952 580.537C564.592 584.788 567.501 590.689 567.501 597.225V608.774Z" stroke="white" stroke-width="0.352791"/>
<path d="M631.769 597.352V655.858C631.769 668.866 620.272 679.463 606.075 679.463C591.809 679.463 580.313 668.866 580.313 655.858V644.119H605.937L580.313 608.774V597.352C580.313 584.281 591.809 573.747 606.075 573.747C613.139 573.747 619.58 576.349 624.289 580.664C628.929 584.915 631.769 590.817 631.769 597.352Z" stroke="white" stroke-width="0.352791"/>
<path d="M696.244 608.774H670.482L696.244 643.928V655.731C696.244 668.803 684.679 679.336 670.482 679.336C656.285 679.336 644.719 668.803 644.719 655.731V597.225C644.719 584.154 656.285 573.62 670.482 573.62C677.615 573.62 684.056 576.222 688.696 580.537C693.336 584.788 696.244 590.689 696.244 597.225V608.774Z" stroke="white" stroke-width="0.352791"/>
<path d="M760.512 597.352V655.858C760.512 668.866 749.016 679.463 734.819 679.463C720.552 679.463 709.056 668.866 709.056 655.858V644.119H734.68L709.056 608.774V597.352C709.056 584.281 720.552 573.747 734.819 573.747C741.883 573.747 748.323 576.349 752.963 580.664C757.673 584.915 760.512 590.817 760.512 597.352Z" stroke="white" stroke-width="0.352791"/>
<path d="M953.732 608.774H927.969L953.732 643.928V655.731C953.732 668.803 942.166 679.336 927.969 679.336C913.703 679.336 902.207 668.803 902.207 655.731V597.225C902.207 584.154 913.703 573.62 927.969 573.62C935.102 573.62 941.543 576.222 946.183 580.537C950.823 584.788 953.732 590.689 953.732 597.225V608.774Z" stroke="white" stroke-width="0.352791"/>
<path d="M1018 597.352V655.858C1018 668.866 1006.5 679.463 992.237 679.463C978.04 679.463 966.544 668.866 966.544 655.858V644.119H992.099L966.544 608.774V597.352C966.544 584.281 978.04 573.747 992.237 573.747C999.371 573.747 1005.81 576.349 1010.45 580.664C1015.16 584.915 1018 590.817 1018 597.352Z" stroke="white" stroke-width="0.352791"/>
<path d="M52.5252 723.311H26.7626L52.5252 758.465V770.268C52.5252 783.276 41.029 793.873 26.7626 793.873C12.5655 793.873 1 783.276 1 770.268V711.699C1 698.69 12.5655 688.093 26.7626 688.093C33.8958 688.093 40.3365 690.758 44.9765 695.01C49.6165 699.325 52.5252 705.226 52.5252 711.699V723.311Z" stroke="white" stroke-width="0.352791"/>
<path d="M116.862 711.826V770.395C116.862 783.403 105.297 794 91.0999 794C76.8335 794 65.3373 783.403 65.3373 770.395V758.656H90.9614L65.3373 723.311V711.826C65.3373 698.817 76.8335 688.22 91.0999 688.22C98.1638 688.22 104.604 690.885 109.314 695.137C113.954 699.452 116.862 705.353 116.862 711.826Z" stroke="white" stroke-width="0.352791"/>
<path d="M310.013 723.311H284.25L310.013 758.465V770.268C310.013 783.276 298.447 793.873 284.25 793.873C270.053 793.873 258.488 783.276 258.488 770.268V711.699C258.488 698.69 270.053 688.093 284.25 688.093C291.383 688.093 297.824 690.758 302.464 695.01C307.104 699.325 310.013 705.226 310.013 711.699V723.311Z" stroke="white" stroke-width="0.352791"/>
<path d="M374.35 711.826V770.395C374.35 783.403 362.785 794 348.587 794C334.321 794 322.825 783.403 322.825 770.395V758.656H348.449L322.825 723.311V711.826C322.825 698.817 334.321 688.22 348.587 688.22C355.651 688.22 362.092 690.885 366.801 695.137C371.441 699.452 374.35 705.353 374.35 711.826Z" stroke="white" stroke-width="0.352791"/>
<path d="M438.757 723.311H412.994L438.757 758.465V770.268C438.757 783.276 427.191 793.873 412.994 793.873C398.797 793.873 387.232 783.276 387.232 770.268V711.699C387.232 698.69 398.797 688.093 412.994 688.093C420.127 688.093 426.568 690.758 431.208 695.01C435.848 699.325 438.757 705.226 438.757 711.699V723.311Z" stroke="white" stroke-width="0.352791"/>
<path d="M503.025 711.826V770.395C503.025 783.403 491.528 794 477.331 794C463.065 794 451.569 783.403 451.569 770.395V758.656H477.193L451.569 723.311V711.826C451.569 698.817 463.065 688.22 477.331 688.22C484.395 688.22 490.836 690.885 495.545 695.137C500.185 699.452 503.025 705.353 503.025 711.826Z" stroke="white" stroke-width="0.352791"/>
<path d="M696.244 723.311H670.482L696.244 758.465V770.268C696.244 783.276 684.679 793.873 670.482 793.873C656.285 793.873 644.719 783.276 644.719 770.268V711.699C644.719 698.69 656.285 688.093 670.482 688.093C677.615 688.093 684.056 690.758 688.696 695.01C693.336 699.325 696.244 705.226 696.244 711.699V723.311Z" stroke="white" stroke-width="0.352791"/>
<path d="M760.512 711.826V770.395C760.512 783.403 749.016 794 734.819 794C720.552 794 709.056 783.403 709.056 770.395V758.656H734.68L709.056 723.311V711.826C709.056 698.817 720.552 688.22 734.819 688.22C741.883 688.22 748.323 690.885 752.963 695.137C757.673 699.452 760.512 705.353 760.512 711.826Z" stroke="white" stroke-width="0.352791"/>
<path d="M824.988 723.311H799.225L824.988 758.465V770.268C824.988 783.276 813.423 793.873 799.225 793.873C785.028 793.873 773.463 783.276 773.463 770.268V711.699C773.463 698.69 785.028 688.093 799.225 688.093C806.359 688.093 812.799 690.758 817.439 695.01C822.079 699.325 824.988 705.226 824.988 711.699V723.311Z" stroke="white" stroke-width="0.352791"/>
<path d="M889.256 711.826V770.395C889.256 783.403 877.76 794 863.493 794C849.296 794 837.8 783.403 837.8 770.395V758.656H863.355L837.8 723.311V711.826C837.8 698.817 849.296 688.22 863.493 688.22C870.627 688.22 877.067 690.885 881.707 695.137C886.417 699.452 889.256 705.353 889.256 711.826Z" stroke="white" stroke-width="0.352791"/>
<path d="M1084.53 36.2177H1058.76L1084.53 71.3719V83.1745C1084.53 96.1828 1073.03 106.78 1058.76 106.78C1044.57 106.78 1033 96.1828 1033 83.1745V24.6053C1033 11.597 1044.57 1 1058.76 1C1065.9 1 1072.34 3.66512 1076.98 7.91662C1081.62 12.2316 1084.53 18.1329 1084.53 24.6053V36.2177Z" stroke="white" stroke-width="0.352791"/>
<path d="M1148.86 24.7323V83.3015C1148.86 96.3098 1137.3 106.907 1123.1 106.907C1108.83 106.907 1097.34 96.3098 1097.34 83.3015V71.5623H1122.96L1097.34 36.2177V24.7323C1097.34 11.724 1108.83 1.12695 1123.1 1.12695C1130.16 1.12695 1136.6 3.79207 1141.31 8.04357C1145.95 12.3585 1148.86 18.1964 1148.86 24.7323Z" stroke="white" stroke-width="0.352791"/>
<path d="M1342.01 36.2177H1316.25L1342.01 71.3719V83.1745C1342.01 96.1828 1330.45 106.78 1316.25 106.78C1302.05 106.78 1290.49 96.1828 1290.49 83.1745V24.6053C1290.49 11.597 1302.05 1 1316.25 1C1323.38 1 1329.82 3.66512 1334.46 7.91662C1339.1 12.2316 1342.01 18.1329 1342.01 24.6053V36.2177Z" stroke="white" stroke-width="0.352791"/>
<path d="M1406.35 24.7323V83.3015C1406.35 96.3098 1394.78 106.907 1380.59 106.907C1366.32 106.907 1354.82 96.3098 1354.82 83.3015V71.5623H1380.45L1354.82 36.2177V24.7323C1354.82 11.724 1366.32 1.12695 1380.59 1.12695C1387.65 1.12695 1394.09 3.79207 1398.8 8.04357C1403.44 12.3585 1406.35 18.1964 1406.35 24.7323Z" stroke="white" stroke-width="0.352791"/>
<path d="M1470.76 36.2177H1444.99L1470.76 71.3719V83.1745C1470.76 96.1828 1459.19 106.78 1444.99 106.78C1430.8 106.78 1419.23 96.1828 1419.23 83.1745V24.6053C1419.23 11.597 1430.8 1 1444.99 1C1452.13 1 1458.57 3.66512 1463.21 7.91662C1467.85 12.2316 1470.76 18.1329 1470.76 24.6053V36.2177Z" stroke="white" stroke-width="0.352791"/>
<path d="M1084.53 150.754H1058.76L1084.53 185.908V197.648C1084.53 210.719 1073.03 221.253 1058.76 221.253C1044.57 221.253 1033 210.719 1033 197.648V139.142C1033 126.134 1044.57 115.537 1058.76 115.537C1065.9 115.537 1072.34 118.202 1076.98 122.453C1081.62 126.705 1084.53 132.606 1084.53 139.142V150.754Z" stroke="white" stroke-width="0.352791"/>
<path d="M1148.86 139.269V197.775C1148.86 210.847 1137.3 221.38 1123.1 221.38C1108.83 221.38 1097.34 210.847 1097.34 197.775V186.099H1122.96L1097.34 150.755V139.269C1097.34 126.197 1108.83 115.664 1123.1 115.664C1130.16 115.664 1136.6 118.329 1141.31 122.58C1145.95 126.832 1148.86 132.733 1148.86 139.269Z" stroke="white" stroke-width="0.352791"/>
<path d="M1213.27 150.754H1187.51L1213.27 185.908V197.648C1213.27 210.719 1201.77 221.253 1187.51 221.253C1173.31 221.253 1161.74 210.719 1161.74 197.648V139.142C1161.74 126.134 1173.31 115.537 1187.51 115.537C1194.64 115.537 1201.08 118.202 1205.72 122.453C1210.36 126.705 1213.27 132.606 1213.27 139.142V150.754Z" stroke="white" stroke-width="0.352791"/>
<path d="M1277.61 139.269V197.775C1277.61 210.847 1266.04 221.38 1251.84 221.38C1237.58 221.38 1226.08 210.847 1226.08 197.775V186.099H1251.71L1226.08 150.755V139.269C1226.08 126.197 1237.58 115.664 1251.84 115.664C1258.91 115.664 1265.35 118.329 1270.06 122.58C1274.7 126.832 1277.61 132.733 1277.61 139.269Z" stroke="white" stroke-width="0.352791"/>
<path d="M1470.76 150.754H1444.99L1470.76 185.908V197.648C1470.76 210.719 1459.19 221.253 1444.99 221.253C1430.8 221.253 1419.23 210.719 1419.23 197.648V139.142C1419.23 126.134 1430.8 115.537 1444.99 115.537C1452.13 115.537 1458.57 118.202 1463.21 122.453C1467.85 126.705 1470.76 132.606 1470.76 139.142V150.754Z" stroke="white" stroke-width="0.352791"/>
<path d="M1213.27 265.228H1187.51L1213.27 300.382V312.185C1213.27 325.256 1201.77 335.79 1187.51 335.79C1173.31 335.79 1161.74 325.256 1161.74 312.185V253.679C1161.74 240.607 1173.31 230.073 1187.51 230.073C1194.64 230.073 1201.08 232.675 1205.72 236.99C1210.36 241.242 1213.27 247.143 1213.27 253.679V265.228Z" stroke="white" stroke-width="0.352791"/>
<path d="M1277.61 253.806V312.311C1277.61 325.32 1266.04 335.917 1251.84 335.917C1237.58 335.917 1226.08 325.32 1226.08 312.311V300.572H1251.71L1226.08 265.228V253.806C1226.08 240.734 1237.58 230.2 1251.84 230.2C1258.91 230.2 1265.35 232.802 1270.06 237.117C1274.7 241.368 1277.61 247.27 1277.61 253.806Z" stroke="white" stroke-width="0.352791"/>
<path d="M1342.01 265.228H1316.25L1342.01 300.382V312.185C1342.01 325.256 1330.45 335.79 1316.25 335.79C1302.05 335.79 1290.49 325.256 1290.49 312.185V253.679C1290.49 240.607 1302.05 230.073 1316.25 230.073C1323.38 230.073 1329.82 232.675 1334.46 236.99C1339.1 241.242 1342.01 247.143 1342.01 253.679V265.228Z" stroke="white" stroke-width="0.352791"/>
<path d="M1406.35 253.806V312.311C1406.35 325.32 1394.78 335.917 1380.59 335.917C1366.32 335.917 1354.82 325.32 1354.82 312.311V300.572H1380.45L1354.82 265.228V253.806C1354.82 240.734 1366.32 230.2 1380.59 230.2C1387.65 230.2 1394.09 232.802 1398.8 237.117C1403.44 241.368 1406.35 247.27 1406.35 253.806Z" stroke="white" stroke-width="0.352791"/>
<path d="M1084.53 379.764H1058.76L1084.53 414.918V426.721C1084.53 439.729 1073.03 450.327 1058.76 450.327C1044.57 450.327 1033 439.729 1033 426.721V368.152C1033 355.144 1044.57 344.547 1058.76 344.547C1065.9 344.547 1072.34 347.212 1076.98 351.463C1081.62 355.778 1084.53 361.68 1084.53 368.152V379.764Z" stroke="white" stroke-width="0.352791"/>
<path d="M1148.86 368.279V426.848C1148.86 439.856 1137.3 450.454 1123.1 450.454C1108.83 450.454 1097.34 439.856 1097.34 426.848V415.109H1122.96L1097.34 379.764V368.279C1097.34 355.271 1108.83 344.674 1123.1 344.674C1130.16 344.674 1136.6 347.339 1141.31 351.59C1145.95 355.905 1148.86 361.807 1148.86 368.279Z" stroke="white" stroke-width="0.352791"/>
<path d="M1342.01 379.764H1316.25L1342.01 414.918V426.721C1342.01 439.729 1330.45 450.327 1316.25 450.327C1302.05 450.327 1290.49 439.729 1290.49 426.721V368.152C1290.49 355.144 1302.05 344.547 1316.25 344.547C1323.38 344.547 1329.82 347.212 1334.46 351.463C1339.1 355.778 1342.01 361.68 1342.01 368.152V379.764Z" stroke="white" stroke-width="0.352791"/>
<path d="M1406.35 368.279V426.848C1406.35 439.856 1394.78 450.454 1380.59 450.454C1366.32 450.454 1354.82 439.856 1354.82 426.848V415.109H1380.45L1354.82 379.764V368.279C1354.82 355.271 1366.32 344.674 1380.59 344.674C1387.65 344.674 1394.09 347.339 1398.8 351.59C1403.44 355.905 1406.35 361.807 1406.35 368.279Z" stroke="white" stroke-width="0.352791"/>
<path d="M1470.76 379.764H1444.99L1470.76 414.918V426.721C1470.76 439.729 1459.19 450.327 1444.99 450.327C1430.8 450.327 1419.23 439.729 1419.23 426.721V368.152C1419.23 355.144 1430.8 344.547 1444.99 344.547C1452.13 344.547 1458.57 347.212 1463.21 351.463C1467.85 355.778 1470.76 361.68 1470.76 368.152V379.764Z" stroke="white" stroke-width="0.352791"/>
<path d="M1084.53 494.301H1058.76L1084.53 529.455V541.194C1084.53 554.266 1073.03 564.8 1058.76 564.8C1044.57 564.8 1033 554.266 1033 541.194V482.689C1033 469.68 1044.57 459.083 1058.76 459.083C1065.9 459.083 1072.34 461.748 1076.98 466C1081.62 470.251 1084.53 476.153 1084.53 482.689V494.301Z" stroke="white" stroke-width="0.352791"/>
<path d="M1148.86 482.816V541.321C1148.86 554.393 1137.3 564.927 1123.1 564.927C1108.83 564.927 1097.34 554.393 1097.34 541.321V529.646H1122.96L1097.34 494.301V482.816C1097.34 469.744 1108.83 459.21 1123.1 459.21C1130.16 459.21 1136.6 461.875 1141.31 466.127C1145.95 470.378 1148.86 476.28 1148.86 482.816Z" stroke="white" stroke-width="0.352791"/>
<path d="M1213.27 494.301H1187.51L1213.27 529.455V541.194C1213.27 554.266 1201.77 564.8 1187.51 564.8C1173.31 564.8 1161.74 554.266 1161.74 541.194V482.689C1161.74 469.68 1173.31 459.083 1187.51 459.083C1194.64 459.083 1201.08 461.748 1205.72 466C1210.36 470.251 1213.27 476.153 1213.27 482.689V494.301Z" stroke="white" stroke-width="0.352791"/>
<path d="M1277.61 482.816V541.321C1277.61 554.393 1266.04 564.927 1251.84 564.927C1237.58 564.927 1226.08 554.393 1226.08 541.321V529.646H1251.71L1226.08 494.301V482.816C1226.08 469.744 1237.58 459.21 1251.84 459.21C1258.91 459.21 1265.35 461.875 1270.06 466.127C1274.7 470.378 1277.61 476.28 1277.61 482.816Z" stroke="white" stroke-width="0.352791"/>
<path d="M1470.76 494.301H1444.99L1470.76 529.455V541.194C1470.76 554.266 1459.19 564.8 1444.99 564.8C1430.8 564.8 1419.23 554.266 1419.23 541.194V482.689C1419.23 469.68 1430.8 459.083 1444.99 459.083C1452.13 459.083 1458.57 461.748 1463.21 466C1467.85 470.251 1470.76 476.153 1470.76 482.689V494.301Z" stroke="white" stroke-width="0.352791"/>
<path d="M1213.27 608.774H1187.51L1213.27 643.928V655.731C1213.27 668.803 1201.77 679.336 1187.51 679.336C1173.31 679.336 1161.74 668.803 1161.74 655.731V597.225C1161.74 584.154 1173.31 573.62 1187.51 573.62C1194.64 573.62 1201.08 576.222 1205.72 580.537C1210.36 584.788 1213.27 590.689 1213.27 597.225V608.774Z" stroke="white" stroke-width="0.352791"/>
<path d="M1277.61 597.352V655.858C1277.61 668.866 1266.04 679.463 1251.84 679.463C1237.58 679.463 1226.08 668.866 1226.08 655.858V644.119H1251.71L1226.08 608.774V597.352C1226.08 584.281 1237.58 573.747 1251.84 573.747C1258.91 573.747 1265.35 576.349 1270.06 580.664C1274.7 584.915 1277.61 590.817 1277.61 597.352Z" stroke="white" stroke-width="0.352791"/>
<path d="M1342.01 608.774H1316.25L1342.01 643.928V655.731C1342.01 668.803 1330.45 679.336 1316.25 679.336C1302.05 679.336 1290.49 668.803 1290.49 655.731V597.225C1290.49 584.154 1302.05 573.62 1316.25 573.62C1323.38 573.62 1329.82 576.222 1334.46 580.537C1339.1 584.788 1342.01 590.689 1342.01 597.225V608.774Z" stroke="white" stroke-width="0.352791"/>
<path d="M1406.35 597.352V655.858C1406.35 668.866 1394.78 679.463 1380.59 679.463C1366.32 679.463 1354.82 668.866 1354.82 655.858V644.119H1380.45L1354.82 608.774V597.352C1354.82 584.281 1366.32 573.747 1380.59 573.747C1387.65 573.747 1394.09 576.349 1398.8 580.664C1403.44 584.915 1406.35 590.817 1406.35 597.352Z" stroke="white" stroke-width="0.352791"/>
<path d="M1084.53 723.311H1058.76L1084.53 758.465V770.268C1084.53 783.276 1073.03 793.873 1058.76 793.873C1044.57 793.873 1033 783.276 1033 770.268V711.699C1033 698.69 1044.57 688.093 1058.76 688.093C1065.9 688.093 1072.34 690.758 1076.98 695.01C1081.62 699.325 1084.53 705.226 1084.53 711.699V723.311Z" stroke="white" stroke-width="0.352791"/>
<path d="M1148.86 711.826V770.395C1148.86 783.403 1137.3 794 1123.1 794C1108.83 794 1097.34 783.403 1097.34 770.395V758.656H1122.96L1097.34 723.311V711.826C1097.34 698.817 1108.83 688.22 1123.1 688.22C1130.16 688.22 1136.6 690.885 1141.31 695.137C1145.95 699.452 1148.86 705.353 1148.86 711.826Z" stroke="white" stroke-width="0.352791"/>
<path d="M1342.01 723.311H1316.25L1342.01 758.465V770.268C1342.01 783.276 1330.45 793.873 1316.25 793.873C1302.05 793.873 1290.49 783.276 1290.49 770.268V711.699C1290.49 698.69 1302.05 688.093 1316.25 688.093C1323.38 688.093 1329.82 690.758 1334.46 695.01C1339.1 699.325 1342.01 705.226 1342.01 711.699V723.311Z" stroke="white" stroke-width="0.352791"/>
<path d="M1406.35 711.826V770.395C1406.35 783.403 1394.78 794 1380.59 794C1366.32 794 1354.82 783.403 1354.82 770.395V758.656H1380.45L1354.82 723.311V711.826C1354.82 698.817 1366.32 688.22 1380.59 688.22C1387.65 688.22 1394.09 690.885 1398.8 695.137C1403.44 699.452 1406.35 705.353 1406.35 711.826Z" stroke="white" stroke-width="0.352791"/>
<path d="M1470.76 723.311H1444.99L1470.76 758.465V770.268C1470.76 783.276 1459.19 793.873 1444.99 793.873C1430.8 793.873 1419.23 783.276 1419.23 770.268V711.699C1419.23 698.69 1430.8 688.093 1444.99 688.093C1452.13 688.093 1458.57 690.758 1463.21 695.01C1467.85 699.325 1470.76 705.226 1470.76 711.699V723.311Z" stroke="white" stroke-width="0.352791"/>
</svg>
