<svg width="1440" height="323" viewBox="0 0 1440 323" fill="none" xmlns="http://www.w3.org/2000/svg">
<rect x="-6" y="1" width="1440" height="793" fill="#ECE7E7"/>
<path d="M45.5252 36.2177H19.7626L45.5252 71.3719V83.1745C45.5252 96.1828 34.029 106.78 19.7626 106.78C5.56547 106.78 -6 96.1828 -6 83.1745V24.6053C-6 11.597 5.56547 1 19.7626 1C26.8958 1 33.3365 3.66512 37.9765 7.91662C42.6165 12.2316 45.5252 18.1329 45.5252 24.6053V36.2177Z" stroke="white" stroke-width="0.352791"/>
<path d="M109.862 24.7323V83.3015C109.862 96.3098 98.297 106.907 84.0999 106.907C69.8335 106.907 58.3373 96.3098 58.3373 83.3015V71.5623H83.9614L58.3373 36.2177V24.7323C58.3373 11.724 69.8335 1.12695 84.0999 1.12695C91.1638 1.12695 97.6045 3.79207 102.314 8.04357C106.954 12.3585 109.862 18.1964 109.862 24.7323Z" stroke="white" stroke-width="0.352791"/>
<path d="M303.013 36.2177H277.25L303.013 71.3719V83.1745C303.013 96.1828 291.447 106.78 277.25 106.78C263.053 106.78 251.488 96.1828 251.488 83.1745V24.6053C251.488 11.597 263.053 1 277.25 1C284.383 1 290.824 3.66512 295.464 7.91662C300.104 12.2316 303.013 18.1329 303.013 24.6053V36.2177Z" stroke="white" stroke-width="0.352791"/>
<path d="M367.35 24.7323V83.3015C367.35 96.3098 355.785 106.907 341.587 106.907C327.321 106.907 315.825 96.3098 315.825 83.3015V71.5623H341.449L315.825 36.2177V24.7323C315.825 11.724 327.321 1.12695 341.587 1.12695C348.651 1.12695 355.092 3.79207 359.801 8.04357C364.441 12.3585 367.35 18.1964 367.35 24.7323Z" stroke="white" stroke-width="0.352791"/>
<path d="M431.757 36.2177H405.994L431.757 71.3719V83.1745C431.757 96.1828 420.191 106.78 405.994 106.78C391.797 106.78 380.232 96.1828 380.232 83.1745V24.6053C380.232 11.597 391.797 1 405.994 1C413.127 1 419.568 3.66512 424.208 7.91662C428.848 12.2316 431.757 18.1329 431.757 24.6053V36.2177Z" stroke="white" stroke-width="0.352791"/>
<path d="M496.025 24.7323V83.3015C496.025 96.3098 484.528 106.907 470.331 106.907C456.065 106.907 444.569 96.3098 444.569 83.3015V71.5623H470.193L444.569 36.2177V24.7323C444.569 11.724 456.065 1.12695 470.331 1.12695C477.395 1.12695 483.836 3.79207 488.545 8.04357C493.185 12.3585 496.025 18.1964 496.025 24.7323Z" stroke="white" stroke-width="0.352791"/>
<path d="M689.244 36.2177H663.482L689.244 71.3719V83.1745C689.244 96.1828 677.679 106.78 663.482 106.78C649.285 106.78 637.719 96.1828 637.719 83.1745V24.6053C637.719 11.597 649.285 1 663.482 1C670.615 1 677.056 3.66512 681.696 7.91662C686.336 12.2316 689.244 18.1329 689.244 24.6053V36.2177Z" stroke="white" stroke-width="0.352791"/>
<path d="M753.512 24.7323V83.3015C753.512 96.3098 742.016 106.907 727.819 106.907C713.552 106.907 702.056 96.3098 702.056 83.3015V71.5623H727.68L702.056 36.2177V24.7323C702.056 11.724 713.552 1.12695 727.819 1.12695C734.883 1.12695 741.323 3.79207 745.963 8.04357C750.673 12.3585 753.512 18.1964 753.512 24.7323Z" stroke="white" stroke-width="0.352791"/>
<path d="M817.988 36.2177H792.225L817.988 71.3719V83.1745C817.988 96.1828 806.423 106.78 792.225 106.78C778.028 106.78 766.463 96.1828 766.463 83.1745V24.6053C766.463 11.597 778.028 1 792.225 1C799.359 1 805.799 3.66512 810.439 7.91662C815.079 12.2316 817.988 18.1329 817.988 24.6053V36.2177Z" stroke="white" stroke-width="0.352791"/>
<path d="M882.256 24.7323V83.3015C882.256 96.3098 870.76 106.907 856.493 106.907C842.296 106.907 830.8 96.3098 830.8 83.3015V71.5623H856.355L830.8 36.2177V24.7323C830.8 11.724 842.296 1.12695 856.493 1.12695C863.627 1.12695 870.067 3.79207 874.707 8.04357C879.417 12.3585 882.256 18.1964 882.256 24.7323Z" stroke="white" stroke-width="0.352791"/>
<path d="M45.5252 150.754H19.7626L45.5252 185.909V197.648C45.5252 210.72 34.029 221.253 19.7626 221.253C5.56547 221.253 -6 210.72 -6 197.648V139.142C-6 126.134 5.56547 115.537 19.7626 115.537C26.8958 115.537 33.3365 118.202 37.9765 122.453C42.6165 126.705 45.5252 132.606 45.5252 139.142V150.754Z" stroke="white" stroke-width="0.352791"/>
<path d="M109.862 139.269V197.775C109.862 210.847 98.297 221.38 84.0999 221.38C69.8335 221.38 58.3373 210.847 58.3373 197.775V186.099H83.9614L58.3373 150.755V139.269C58.3373 126.197 69.8335 115.664 84.0999 115.664C91.1638 115.664 97.6045 118.329 102.314 122.58C106.954 126.832 109.862 132.733 109.862 139.269Z" stroke="white" stroke-width="0.352791"/>
<path d="M174.269 150.754H148.506L174.269 185.908V197.648C174.269 210.719 162.773 221.253 148.506 221.253C134.309 221.253 122.744 210.719 122.744 197.648V139.142C122.744 126.134 134.309 115.537 148.506 115.537C155.64 115.537 162.08 118.202 166.72 122.453C171.36 126.705 174.269 132.606 174.269 139.142V150.754Z" stroke="white" stroke-width="0.352791"/>
<path d="M238.606 139.269V197.775C238.606 210.847 227.041 221.38 212.844 221.38C198.577 221.38 187.081 210.847 187.081 197.775V186.099H212.705L187.081 150.755V139.269C187.081 126.197 198.577 115.664 212.844 115.664C219.908 115.664 226.348 118.329 231.058 122.58C235.698 126.832 238.606 132.733 238.606 139.269Z" stroke="white" stroke-width="0.352791"/>
<path d="M431.757 150.754H405.994L431.757 185.908V197.648C431.757 210.719 420.191 221.253 405.994 221.253C391.797 221.253 380.232 210.719 380.232 197.648V139.142C380.232 126.134 391.797 115.537 405.994 115.537C413.127 115.537 419.568 118.202 424.208 122.453C428.848 126.705 431.757 132.606 431.757 139.142V150.754Z" stroke="white" stroke-width="0.352791"/>
<path d="M496.025 139.269V197.775C496.025 210.847 484.528 221.38 470.331 221.38C456.065 221.38 444.569 210.847 444.569 197.775V186.099H470.193L444.569 150.755V139.269C444.569 126.197 456.065 115.664 470.331 115.664C477.395 115.664 483.836 118.329 488.545 122.58C493.185 126.832 496.025 132.733 496.025 139.269Z" stroke="white" stroke-width="0.352791"/>
<path d="M560.501 150.754H534.738L560.501 185.908V197.648C560.501 210.719 548.935 221.253 534.738 221.253C520.541 221.253 508.975 210.719 508.975 197.648V139.142C508.975 126.134 520.541 115.537 534.738 115.537C541.871 115.537 548.312 118.202 552.952 122.453C557.592 126.705 560.501 132.606 560.501 139.142V150.754Z" stroke="white" stroke-width="0.352791"/>
<path d="M624.769 139.269V197.775C624.769 210.847 613.272 221.38 599.075 221.38C584.809 221.38 573.313 210.847 573.313 197.775V186.099H598.937L573.313 150.755V139.269C573.313 126.197 584.809 115.664 599.075 115.664C606.139 115.664 612.58 118.329 617.289 122.58C621.929 126.832 624.769 132.733 624.769 139.269Z" stroke="white" stroke-width="0.352791"/>
<path d="M817.988 150.754H792.225L817.988 185.908V197.648C817.988 210.719 806.423 221.253 792.225 221.253C778.028 221.253 766.463 210.719 766.463 197.648V139.142C766.463 126.134 778.028 115.537 792.225 115.537C799.359 115.537 805.799 118.202 810.439 122.453C815.079 126.705 817.988 132.606 817.988 139.142V150.754Z" stroke="white" stroke-width="0.352791"/>
<path d="M882.256 139.269V197.775C882.256 210.847 870.76 221.38 856.493 221.38C842.296 221.38 830.8 210.847 830.8 197.775V186.099H856.355L830.8 150.755V139.269C830.8 126.197 842.296 115.664 856.493 115.664C863.627 115.664 870.067 118.329 874.707 122.58C879.417 126.832 882.256 132.733 882.256 139.269Z" stroke="white" stroke-width="0.352791"/>
<path d="M946.732 150.754H920.969L946.732 185.908V197.648C946.732 210.719 935.166 221.253 920.969 221.253C906.703 221.253 895.207 210.719 895.207 197.648V139.142C895.207 126.134 906.703 115.537 920.969 115.537C928.102 115.537 934.543 118.202 939.183 122.453C943.823 126.705 946.732 132.606 946.732 139.142V150.754Z" stroke="white" stroke-width="0.352791"/>
<path d="M1011 139.269V197.775C1011 210.847 999.504 221.38 985.237 221.38C971.04 221.38 959.544 210.847 959.544 197.775V186.099H985.099L959.544 150.755V139.269C959.544 126.197 971.04 115.664 985.237 115.664C992.371 115.664 998.811 118.329 1003.45 122.58C1008.16 126.832 1011 132.733 1011 139.269Z" stroke="white" stroke-width="0.352791"/>
<path d="M174.269 265.228H148.506L174.269 300.382V312.185C174.269 325.256 162.773 335.79 148.506 335.79C134.309 335.79 122.744 325.256 122.744 312.185V253.679C122.744 240.607 134.309 230.073 148.506 230.073C155.64 230.073 162.08 232.675 166.72 236.99C171.36 241.242 174.269 247.143 174.269 253.679V265.228Z" stroke="white" stroke-width="0.352791"/>
<path d="M238.606 253.806V312.311C238.606 325.32 227.041 335.917 212.844 335.917C198.577 335.917 187.081 325.32 187.081 312.311V300.572H212.705L187.081 265.228V253.806C187.081 240.734 198.577 230.2 212.844 230.2C219.908 230.2 226.348 232.802 231.058 237.117C235.698 241.368 238.606 247.27 238.606 253.806Z" stroke="white" stroke-width="0.352791"/>
<path d="M303.013 265.228H277.25L303.013 300.382V312.185C303.013 325.256 291.447 335.79 277.25 335.79C263.053 335.79 251.488 325.256 251.488 312.185V253.679C251.488 240.607 263.053 230.073 277.25 230.073C284.383 230.073 290.824 232.675 295.464 236.99C300.104 241.242 303.013 247.143 303.013 253.679V265.228Z" stroke="white" stroke-width="0.352791"/>
<path d="M367.35 253.806V312.311C367.35 325.32 355.785 335.917 341.587 335.917C327.321 335.917 315.825 325.32 315.825 312.311V300.572H341.449L315.825 265.228V253.806C315.825 240.734 327.321 230.2 341.587 230.2C348.651 230.2 355.092 232.802 359.801 237.117C364.441 241.368 367.35 247.27 367.35 253.806Z" stroke="white" stroke-width="0.352791"/>
<path d="M560.501 265.228H534.738L560.501 300.382V312.185C560.501 325.256 548.935 335.79 534.738 335.79C520.541 335.79 508.975 325.256 508.975 312.185V253.679C508.975 240.607 520.541 230.073 534.738 230.073C541.871 230.073 548.312 232.675 552.952 236.99C557.592 241.242 560.501 247.143 560.501 253.679V265.228Z" stroke="white" stroke-width="0.352791"/>
<path d="M624.769 253.806V312.311C624.769 325.32 613.272 335.917 599.075 335.917C584.809 335.917 573.313 325.32 573.313 312.311V300.572H598.937L573.313 265.228V253.806C573.313 240.734 584.809 230.2 599.075 230.2C606.139 230.2 612.58 232.802 617.289 237.117C621.929 241.368 624.769 247.27 624.769 253.806Z" stroke="white" stroke-width="0.352791"/>
<path d="M689.244 265.228H663.482L689.244 300.382V312.185C689.244 325.256 677.679 335.79 663.482 335.79C649.285 335.79 637.719 325.256 637.719 312.185V253.679C637.719 240.607 649.285 230.073 663.482 230.073C670.615 230.073 677.056 232.675 681.696 236.99C686.336 241.242 689.244 247.143 689.244 253.679V265.228Z" stroke="white" stroke-width="0.352791"/>
<path d="M753.512 253.806V312.311C753.512 325.32 742.016 335.917 727.819 335.917C713.552 335.917 702.056 325.32 702.056 312.311V300.572H727.68L702.056 265.228V253.806C702.056 240.734 713.552 230.2 727.819 230.2C734.883 230.2 741.323 232.802 745.963 237.117C750.673 241.368 753.512 247.27 753.512 253.806Z" stroke="white" stroke-width="0.352791"/>
<path d="M946.732 265.228H920.969L946.732 300.382V312.185C946.732 325.256 935.166 335.79 920.969 335.79C906.703 335.79 895.207 325.256 895.207 312.185V253.679C895.207 240.607 906.703 230.073 920.969 230.073C928.102 230.073 934.543 232.675 939.183 236.99C943.823 241.242 946.732 247.143 946.732 253.679V265.228Z" stroke="white" stroke-width="0.352791"/>
<path d="M1011 253.806V312.311C1011 325.32 999.504 335.917 985.237 335.917C971.04 335.917 959.544 325.32 959.544 312.311V300.572H985.099L959.544 265.228V253.806C959.544 240.734 971.04 230.2 985.237 230.2C992.371 230.2 998.811 232.802 1003.45 237.117C1008.16 241.368 1011 247.27 1011 253.806Z" stroke="white" stroke-width="0.352791"/>
<path d="M1077.53 36.2177H1051.76L1077.53 71.3719V83.1745C1077.53 96.1828 1066.03 106.78 1051.76 106.78C1037.57 106.78 1026 96.1828 1026 83.1745V24.6053C1026 11.597 1037.57 1 1051.76 1C1058.9 1 1065.34 3.66512 1069.98 7.91662C1074.62 12.2316 1077.53 18.1329 1077.53 24.6053V36.2177Z" stroke="white" stroke-width="0.352791"/>
<path d="M1141.86 24.7323V83.3015C1141.86 96.3098 1130.3 106.907 1116.1 106.907C1101.83 106.907 1090.34 96.3098 1090.34 83.3015V71.5623H1115.96L1090.34 36.2177V24.7323C1090.34 11.724 1101.83 1.12695 1116.1 1.12695C1123.16 1.12695 1129.6 3.79207 1134.31 8.04357C1138.95 12.3585 1141.86 18.1964 1141.86 24.7323Z" stroke="white" stroke-width="0.352791"/>
<path d="M1335.01 36.2177H1309.25L1335.01 71.3719V83.1745C1335.01 96.1828 1323.45 106.78 1309.25 106.78C1295.05 106.78 1283.49 96.1828 1283.49 83.1745V24.6053C1283.49 11.597 1295.05 1 1309.25 1C1316.38 1 1322.82 3.66512 1327.46 7.91662C1332.1 12.2316 1335.01 18.1329 1335.01 24.6053V36.2177Z" stroke="white" stroke-width="0.352791"/>
<path d="M1399.35 24.7323V83.3015C1399.35 96.3098 1387.78 106.907 1373.59 106.907C1359.32 106.907 1347.82 96.3098 1347.82 83.3015V71.5623H1373.45L1347.82 36.2177V24.7323C1347.82 11.724 1359.32 1.12695 1373.59 1.12695C1380.65 1.12695 1387.09 3.79207 1391.8 8.04357C1396.44 12.3585 1399.35 18.1964 1399.35 24.7323Z" stroke="white" stroke-width="0.352791"/>
<path d="M1463.76 36.2177H1437.99L1463.76 71.3719V83.1745C1463.76 96.1828 1452.19 106.78 1437.99 106.78C1423.8 106.78 1412.23 96.1828 1412.23 83.1745V24.6053C1412.23 11.597 1423.8 1 1437.99 1C1445.13 1 1451.57 3.66512 1456.21 7.91662C1460.85 12.2316 1463.76 18.1329 1463.76 24.6053V36.2177Z" stroke="white" stroke-width="0.352791"/>
<path d="M1077.53 150.754H1051.76L1077.53 185.909V197.648C1077.53 210.72 1066.03 221.253 1051.76 221.253C1037.57 221.253 1026 210.72 1026 197.648V139.142C1026 126.134 1037.57 115.537 1051.76 115.537C1058.9 115.537 1065.34 118.202 1069.98 122.453C1074.62 126.705 1077.53 132.606 1077.53 139.142V150.754Z" stroke="white" stroke-width="0.352791"/>
<path d="M1141.86 139.269V197.775C1141.86 210.847 1130.3 221.38 1116.1 221.38C1101.83 221.38 1090.34 210.847 1090.34 197.775V186.099H1115.96L1090.34 150.755V139.269C1090.34 126.197 1101.83 115.664 1116.1 115.664C1123.16 115.664 1129.6 118.329 1134.31 122.58C1138.95 126.832 1141.86 132.733 1141.86 139.269Z" stroke="white" stroke-width="0.352791"/>
<path d="M1206.27 150.754H1180.51L1206.27 185.908V197.648C1206.27 210.719 1194.77 221.253 1180.51 221.253C1166.31 221.253 1154.74 210.719 1154.74 197.648V139.142C1154.74 126.134 1166.31 115.537 1180.51 115.537C1187.64 115.537 1194.08 118.202 1198.72 122.453C1203.36 126.705 1206.27 132.606 1206.27 139.142V150.754Z" stroke="white" stroke-width="0.352791"/>
<path d="M1270.61 139.269V197.775C1270.61 210.847 1259.04 221.38 1244.84 221.38C1230.58 221.38 1219.08 210.847 1219.08 197.775V186.099H1244.71L1219.08 150.755V139.269C1219.08 126.197 1230.58 115.664 1244.84 115.664C1251.91 115.664 1258.35 118.329 1263.06 122.58C1267.7 126.832 1270.61 132.733 1270.61 139.269Z" stroke="white" stroke-width="0.352791"/>
<path d="M1463.76 150.754H1437.99L1463.76 185.908V197.648C1463.76 210.719 1452.19 221.253 1437.99 221.253C1423.8 221.253 1412.23 210.719 1412.23 197.648V139.142C1412.23 126.134 1423.8 115.537 1437.99 115.537C1445.13 115.537 1451.57 118.202 1456.21 122.453C1460.85 126.705 1463.76 132.606 1463.76 139.142V150.754Z" stroke="white" stroke-width="0.352791"/>
<path d="M1206.27 265.228H1180.51L1206.27 300.382V312.185C1206.27 325.256 1194.77 335.79 1180.51 335.79C1166.31 335.79 1154.74 325.256 1154.74 312.185V253.679C1154.74 240.607 1166.31 230.073 1180.51 230.073C1187.64 230.073 1194.08 232.675 1198.72 236.99C1203.36 241.242 1206.27 247.143 1206.27 253.679V265.228Z" stroke="white" stroke-width="0.352791"/>
<path d="M1270.61 253.806V312.311C1270.61 325.32 1259.04 335.917 1244.84 335.917C1230.58 335.917 1219.08 325.32 1219.08 312.311V300.572H1244.71L1219.08 265.228V253.806C1219.08 240.734 1230.58 230.2 1244.84 230.2C1251.91 230.2 1258.35 232.802 1263.06 237.117C1267.7 241.368 1270.61 247.27 1270.61 253.806Z" stroke="white" stroke-width="0.352791"/>
<path d="M1335.01 265.228H1309.25L1335.01 300.382V312.185C1335.01 325.256 1323.45 335.79 1309.25 335.79C1295.05 335.79 1283.49 325.256 1283.49 312.185V253.679C1283.49 240.607 1295.05 230.073 1309.25 230.073C1316.38 230.073 1322.82 232.675 1327.46 236.99C1332.1 241.242 1335.01 247.143 1335.01 253.679V265.228Z" stroke="white" stroke-width="0.352791"/>
<path d="M1399.35 253.806V312.311C1399.35 325.32 1387.78 335.917 1373.59 335.917C1359.32 335.917 1347.82 325.32 1347.82 312.311V300.572H1373.45L1347.82 265.228V253.806C1347.82 240.734 1359.32 230.2 1373.59 230.2C1380.65 230.2 1387.09 232.802 1391.8 237.117C1396.44 241.368 1399.35 247.27 1399.35 253.806Z" stroke="white" stroke-width="0.352791"/>
</svg>
