<svg width="14" height="14" viewBox="0 0 14 14" fill="none" xmlns="http://www.w3.org/2000/svg">
<path d="M13.1891 5.16514L9.2219 4.58857L7.44847 0.993262C7.40003 0.894824 7.32034 0.815137 7.2219 0.766699C6.97503 0.644824 6.67503 0.746387 6.55159 0.993262L4.77815 4.58857L0.810967 5.16514C0.701592 5.18076 0.601592 5.23232 0.525029 5.31045C0.432469 5.40558 0.381465 5.53357 0.383223 5.6663C0.384981 5.79902 0.439357 5.92561 0.534404 6.01826L3.40472 8.8167L2.72659 12.7683C2.71069 12.8602 2.72086 12.9547 2.75595 13.0412C2.79105 13.1276 2.84966 13.2025 2.92514 13.2573C3.00062 13.3121 3.08995 13.3447 3.183 13.3513C3.27605 13.358 3.3691 13.3384 3.45159 13.2948L7.00003 11.4292L10.5485 13.2948C10.6453 13.3464 10.7578 13.3636 10.8657 13.3448C11.1375 13.2979 11.3203 13.0401 11.2735 12.7683L10.5953 8.8167L13.4657 6.01826C13.5438 5.9417 13.5953 5.8417 13.611 5.73232C13.6532 5.45889 13.4625 5.20576 13.1891 5.16514Z" fill="#FFBF1A"/>
</svg>
