<svg width="34" height="33" viewBox="0 0 34 33" fill="none" xmlns="http://www.w3.org/2000/svg">
<path d="M22.3125 16.5C22.3125 17.8675 21.7528 19.179 20.7565 20.146C19.7602 21.113 18.409 21.6562 17 21.6562C15.591 21.6562 14.2398 21.113 13.2435 20.146C12.2472 19.179 11.6875 17.8675 11.6875 16.5C11.6875 16.2061 11.7194 15.9191 11.7743 15.6406H9.91667V22.5105C9.91667 22.9883 10.3151 23.375 10.8074 23.375H23.1944C23.4303 23.3745 23.6564 23.2833 23.8231 23.1212C23.9897 22.9591 24.0833 22.7395 24.0833 22.5105V15.6406H22.2257C22.2806 15.9191 22.3125 16.2061 22.3125 16.5ZM17 19.9375C17.4652 19.9374 17.9258 19.8483 18.3556 19.6754C18.7854 19.5025 19.1758 19.2492 19.5047 18.9298C19.8336 18.6105 20.0944 18.2314 20.2723 17.8141C20.4503 17.3969 20.5418 16.9498 20.5417 16.4983C20.5415 16.0467 20.4498 15.5997 20.2717 15.1825C20.0935 14.7654 19.8325 14.3864 19.5035 14.0672C19.1744 13.748 18.7838 13.4949 18.354 13.3222C17.9241 13.1495 17.4634 13.0607 16.9982 13.0608C16.0587 13.061 15.1577 13.4235 14.4935 14.0685C13.8293 14.7134 13.4563 15.5881 13.4566 16.5C13.4568 17.4119 13.8303 18.2864 14.4948 18.931C15.1593 19.5757 16.0605 19.9377 17 19.9375ZM21.25 12.8906H23.3732C23.5143 12.8906 23.6496 12.8364 23.7495 12.7397C23.8494 12.6431 23.9058 12.5119 23.9062 12.375V10.3142C23.9062 10.177 23.8501 10.0454 23.7501 9.9484C23.6502 9.85138 23.5146 9.79687 23.3732 9.79687H21.25C21.1086 9.79687 20.9731 9.85138 20.8731 9.9484C20.7731 10.0454 20.717 10.177 20.717 10.3142V12.375C20.7188 12.6586 20.9578 12.8906 21.25 12.8906ZM17 0C12.4913 0 8.1673 1.73839 4.97918 4.83274C1.79107 7.92709 0 12.1239 0 16.5C0 20.8761 1.79107 25.0729 4.97918 28.1673C8.1673 31.2616 12.4913 33 17 33C19.2325 33 21.4431 32.5732 23.5056 31.744C25.5682 30.9148 27.4422 29.6994 29.0208 28.1673C30.5994 26.6351 31.8516 24.8161 32.706 22.8143C33.5603 20.8124 34 18.6668 34 16.5C34 14.3332 33.5603 12.1876 32.706 10.1857C31.8516 8.18385 30.5994 6.3649 29.0208 4.83274C27.4422 3.30057 25.5682 2.08519 23.5056 1.25599C21.4431 0.426785 19.2325 0 17 0ZM25.8542 23.1842C25.8542 24.2344 24.9688 25.0937 23.8868 25.0937H10.1132C9.03125 25.0937 8.14583 24.2344 8.14583 23.1842V9.81578C8.14583 8.76562 9.03125 7.90625 10.1132 7.90625H23.8868C24.9688 7.90625 25.8542 8.76562 25.8542 9.81578V23.1842Z" fill="black"/>
</svg>
