<svg width="146" height="28" viewBox="0 0 146 28" fill="none" xmlns="http://www.w3.org/2000/svg">
<g clip-path="url(#clip0)">
<path d="M9.88574 7.37972H4.92737L9.88574 14.7243V17.2035C9.88574 19.9306 7.65447 22.1308 4.92737 22.1308C2.20027 22.1308 0 19.9306 0 17.2035V4.93152C0 2.20442 2.20027 0.00415039 4.92737 0.00415039C6.29092 0.00415039 7.53051 0.561966 8.42922 1.46067C9.32792 2.35937 9.88574 3.56797 9.88574 4.93152V7.37972Z" fill="#1B6AE3"/>
<path d="M22.2197 4.96253V17.2345C22.2197 19.9616 19.9884 22.1619 17.2613 22.1619C14.5342 22.1619 12.3339 19.9616 12.3339 17.2345V14.7553H17.2613L12.3339 7.37973V4.96253C12.3339 2.23543 14.5342 0.0351562 17.2613 0.0351562C18.6248 0.0351562 19.8644 0.592972 20.7631 1.49168C21.6618 2.35939 22.2197 3.59898 22.2197 4.96253Z" fill="#1B6AE3"/>
<path d="M43.9745 14.0115H34.8325V22.0689H31.1137V2.85522H34.8325V10.5097H43.9745V2.85522H47.7552V22.0689H43.9745V14.0115Z" fill="#1B6AE3"/>
<path d="M55.8436 22.069H52.1868V7.7207H55.8436V22.069Z" fill="#1B6AE3"/>
<path d="M63.7769 22.069H60.1201V7.72072H63.7769V9.27021C64.5827 8.06161 65.7913 7.28687 67.2788 7.28687C68.2395 7.28687 69.0142 7.56577 69.603 8.03062L68.0535 11.5015C67.5887 11.0986 66.8759 10.8507 66.1632 10.8507C64.7066 10.8507 63.7769 12.0903 63.7769 14.0426V22.069Z" fill="#1B6AE3"/>
<path d="M73.9416 13.4848H80.8523C80.4494 11.4705 79.1479 10.4168 77.4434 10.4168C75.615 10.4168 74.3445 11.6564 73.9416 13.4848ZM70.1299 14.9103C70.1299 10.6957 73.2598 7.28687 77.3815 7.28687C81.4721 7.28687 84.6021 10.4788 84.6021 14.6005C84.6021 15.0653 84.5711 15.5611 84.5091 15.8091H73.8796C74.2205 17.8234 75.77 19.2489 77.9703 19.2489C79.4268 19.2489 80.6354 18.6291 81.4721 17.7614L83.3625 20.2406C82.2778 21.4802 80.2635 22.4719 77.8153 22.4719C73.3528 22.4719 70.1299 19.063 70.1299 14.9103Z" fill="#1B6AE3"/>
<path d="M91.3888 14.9103C91.3888 17.2036 93.0003 19.032 95.2006 19.032C97.4319 19.032 99.0123 17.2036 99.0123 14.9103C99.0123 12.5861 97.4319 10.7267 95.2006 10.7267C93.0003 10.7267 91.3888 12.5861 91.3888 14.9103ZM91.3888 7.72072V9.27021C92.4425 8.03062 93.899 7.28687 95.7584 7.28687C99.5701 7.28687 102.669 10.4168 102.669 14.8794C102.669 19.2179 99.7561 22.4719 95.7584 22.4719C93.899 22.4719 92.4115 21.7901 91.3888 20.6125V27.9261H87.7321V7.72072H91.3888Z" fill="#1B6AE3"/>
<path d="M109.673 22.069H106.016V7.7207H109.673V22.069Z" fill="#1B6AE3"/>
<path d="M117.606 14.9103C117.606 17.2036 119.218 19.032 121.418 19.032C123.618 19.032 125.199 17.2036 125.199 14.9103C125.199 12.5861 123.618 10.7267 121.418 10.7267C119.218 10.7267 117.606 12.5861 117.606 14.9103ZM117.606 7.72072V9.27021C118.66 8.03062 120.116 7.28687 121.976 7.28687C125.787 7.28687 128.855 10.4168 128.855 14.8794C128.855 19.2179 125.973 22.4719 121.976 22.4719C120.085 22.4719 118.629 21.7901 117.606 20.6125V27.9261H113.949V7.72072H117.606Z" fill="#1B6AE3"/>
<path d="M135.673 15.4681C135.673 17.5755 136.882 18.97 138.71 18.97C140.539 18.97 141.778 17.5755 141.778 15.4681V7.7207H145.435V15.7471C145.435 19.7447 142.77 22.4099 138.71 22.4099C134.682 22.4099 132.016 19.7447 132.016 15.7471V7.7207H135.673V15.4681Z" fill="#1B6AE3"/>
</g>
<defs>
<clipPath id="clip0">
<rect width="145.435" height="27.9299" fill="white"/>
</clipPath>
</defs>
</svg>
